HIERARCHY
ROOT Hips
{
 OFFSET 0.000000 0.000000 0.000000
 CHANNELS 6 Xposition Yposition Zposition Yrotation Xrotation Zrotation
 JOINT Chest
 {
  OFFSET 0.000000 9.585900 0.002600
  CHANNELS 3 Yrotation Xrotation Zrotation
  JOINT Chest2
  {
   OFFSET 0.000000 9.601200 -0.005300
   CHANNELS 3 Yrotation Xrotation Zrotation
   JOINT Chest3
   {
    OFFSET 0.000000 9.561800 0.000000
    CHANNELS 3 Yrotation Xrotation Zrotation
    JOINT Chest4
    {
     OFFSET 0.000000 9.552100 0.000000
     CHANNELS 3 Yrotation Xrotation Zrotation
     JOINT Neck
     {
      OFFSET 0.000000 14.453000 0.000000
      CHANNELS 3 Yrotation Xrotation Zrotation
      JOINT Head
      {
       OFFSET 0.000000 8.936500 -0.011300
       CHANNELS 3 Yrotation Xrotation Zrotation
       End Site
       {
        OFFSET 0.000000 17.073600 -0.006000
       }
      }
     }
     JOINT RightCollar
     {
      OFFSET -2.921100 9.558500 0.000000
      CHANNELS 3 Yrotation Xrotation Zrotation
      JOINT RightShoulder
      {
       OFFSET -13.519700 0.000000 0.000000
       CHANNELS 3 Yrotation Xrotation Zrotation
       JOINT RightElbow
       {
        OFFSET 0.000000 -29.696600 0.000000
        CHANNELS 3 Yrotation Xrotation Zrotation
        JOINT RightWrist
        {
         OFFSET 0.000000 -24.004700 0.000000
         CHANNELS 3 Yrotation Xrotation Zrotation
         End Site
         {
          OFFSET 0.000000 -17.728500 0.000000
         }
        }
       }
      }
     }
     JOINT LeftCollar
     {
      OFFSET 2.921100 9.558500 0.000000
      CHANNELS 3 Yrotation Xrotation Zrotation
      JOINT LeftShoulder
      {
       OFFSET 13.519700 0.000000 0.000000
       CHANNELS 3 Yrotation Xrotation Zrotation
       JOINT LeftElbow
       {
        OFFSET 0.000000 -29.696600 0.000000
        CHANNELS 3 Yrotation Xrotation Zrotation
        JOINT LeftWrist
        {
         OFFSET 0.000000 -24.004700 0.000000
         CHANNELS 3 Yrotation Xrotation Zrotation
         End Site
         {
          OFFSET 0.000000 -17.728500 0.000000
         }
        }
       }
      }
     }
    }
   }
  }
 }
 JOINT RightHip
 {
  OFFSET -7.771700 -0.012900 -0.001300
  CHANNELS 3 Yrotation Xrotation Zrotation
  JOINT RightKnee
  {
   OFFSET 0.000000 -40.869800 0.001200
   CHANNELS 3 Yrotation Xrotation Zrotation
   JOINT RightAnkle
   {
    OFFSET 0.000000 -39.717900 0.002100
    CHANNELS 3 Yrotation Xrotation Zrotation
    JOINT RightToe
    {
     OFFSET 0.000000 -4.965400 11.033500
     CHANNELS 3 Yrotation Xrotation Zrotation
     End Site
     {
      OFFSET 0.000000 -1.423100 5.872300
     }
    }
   }
  }
 }
 JOINT LeftHip
 {
  OFFSET 7.771700 -0.012900 -0.001300
  CHANNELS 3 Yrotation Xrotation Zrotation
  JOINT LeftKnee
  {
   OFFSET 0.000000 -40.869800 0.001200
   CHANNELS 3 Yrotation Xrotation Zrotation
   JOINT LeftAnkle
   {
    OFFSET 0.000000 -39.717900 0.002100
    CHANNELS 3 Yrotation Xrotation Zrotation
    JOINT LeftToe
    {
     OFFSET 0.000000 -4.965400 11.033500
     CHANNELS 3 Yrotation Xrotation Zrotation
     End Site
     {
      OFFSET 0.000000 -1.423100 5.872300
     }
    }
   }
  }
 }
}
MOTION
Frames: 12
Frame Time: 0.008333
0.000000 85.388000 0.000000 0.000000 -5.767877 0.000000 0.000000 11.653817 0.000000 0.000000 -5.885947 0.000000 0.000000 -0.000000 0.000000 0.000000 -0.000000 0.000000 0.000000 12.528835 0.000000 0.000000 0.711642 0.000000 0.000000 -0.000000 0.000000 0.000000 0.000000 -90.000000 0.000000 -2.309062 0.000000 0.000000 2.309062 0.000000 0.000000 -0.000000 0.000000 0.000000 -0.000000 90.000000 0.000000 -2.309062 0.000000 0.000000 2.309062 0.000000 0.000000 8.520406 0.000000 0.000000 1.905762 0.000000 -0.000000 -4.658285 0.000000 0.000000 -0.000000 0.000000 0.000000 8.520406 0.000000 0.000000 1.905762 0.000000 -0.000000 -4.658285 0.000000 0.000000 -0.000000 0.000000
-131.382849 51.959059 -54.090007 175.584005 -29.434274 0.649899 -2.936660 8.020546 -0.706307 -0.165460 0.425966 0.003206 -0.287952 0.741326 0.004659 -2.945468 7.640968 -0.127415 -7.140654 17.930861 0.256881 -7.799424 -6.565796 1.938326 -0.652590 13.605928 6.066495 -9.136538 -18.156491 -51.749663 107.249936 -18.481238 -169.951192 5.130851 -6.450502 -16.778212 2.868791 12.103570 -9.598043 0.943827 -17.495482 54.470448 -100.406293 -26.692179 170.462119 3.185418 -3.471895 21.923521 -8.890256 -52.929570 4.481358 -73.986445 81.728816 -82.361181 -5.020228 -6.413956 5.695723 0.425551 -0.857012 0.197416 7.555551 -50.883118 -5.445924 27.542733 83.479554 33.064174 -3.227839 -11.131206 -0.284092 0.135609 0.564826 0.040272
-131.383429 51.950242 -54.102998 175.574319 -29.340185 0.649084 -2.948412 7.961247 -0.703128 -0.188265 0.454816 -0.000713 -0.288137 0.730867 0.004950 -2.983518 7.577128 -0.126435 -7.150071 17.947603 0.271277 -7.747914 -6.567490 1.917172 -0.898754 13.568641 5.908626 -9.604641 -18.213357 -51.878546 106.624575 -18.739715 -169.951580 5.701396 -6.085859 -18.745914 3.148605 12.102857 -9.422235 2.079243 -17.675150 54.438555 -101.351564 -26.836026 171.078786 3.277169 -3.074804 23.412096 -8.907416 -53.030589 4.515816 -74.207157 81.727728 -82.583424 -5.015160 -6.445608 5.702415 0.422578 -0.846595 0.194308 7.506552 -50.994661 -5.448702 27.931324 83.504329 33.446155 -3.181281 -11.145130 -0.309851 0.118707 0.551777 0.032439
-131.381765 51.940020 -54.117897 175.551868 -29.237165 0.638370 -2.982659 7.947420 -0.695301 -0.176733 0.431939 0.001553 -0.288311 0.721969 0.005380 -3.018692 7.524914 -0.123151 -7.107037 17.950669 0.276967 -7.752886 -6.561898 1.923206 -1.140838 13.522521 5.752240 -9.989803 -18.277638 -52.012047 105.945237 -19.087494 -169.857911 6.329982 -5.628754 -20.821860 3.419318 12.101233 -9.257993 3.138449 -17.797516 54.447594 -102.253570 -27.024166 171.658670 3.362303 -2.671186 24.892869 -8.938491 -53.138381 4.580774 -74.409333 81.726429 -82.787832 -5.001573 -6.467913 5.705956 0.414446 -0.843634 0.193397 7.501937 -51.108720 -5.444161 28.093999 83.540808 33.624821 -3.165220 -11.190183 -0.329549 0.133175 0.565063 0.034239
-131.383183 51.929663 -54.135915 175.567053 -29.142019 0.625601 -3.051396 7.941259 -0.707410 -0.165550 0.410301 0.003879 -0.288350 0.714636 0.005976 -3.032446 7.483198 -0.116505 -7.145957 17.975461 0.302606 -7.834087 -6.510288 1.984714 -1.387789 13.481264 5.601517 -10.288661 -18.326419 -52.142782 105.189257 -19.504940 -169.676335 6.961548 -5.075747 -22.950080 3.662385 12.096615 -9.101799 4.120995 -17.865625 54.490534 -103.062739 -27.240936 172.175565 3.446077 -2.256619 26.339556 -8.979533 -53.237985 4.615771 -74.697187 81.720801 -83.076061 -4.994368 -6.516789 5.706341 0.418723 -0.825930 0.196138 7.484062 -51.213028 -5.461957 28.293999 83.566669 33.830829 -3.155329 -11.227079 -0.336799 0.143517 0.576705 0.036116
-131.384767 51.915680 -54.149163 175.543297 -29.011717 0.627343 -3.072183 7.883539 -0.711464 -0.165467 0.406755 0.004211 -0.266592 0.677147 0.013744 -3.038089 7.464502 -0.112889 -7.218698 18.025537 0.329493 -7.875352 -6.474065 2.025993 -1.643159 13.469243 5.459672 -10.503699 -18.340396 -52.276404 104.362988 -19.988584 -169.427721 7.547396 -4.435108 -25.061760 3.864973 12.113767 -8.952664 5.038009 -17.891108 54.551457 -103.740286 -27.476535 172.611829 3.537797 -1.808436 27.712121 -9.001114 -53.371304 4.669144 -74.825350 81.721949 -83.205859 -5.004048 -6.553675 5.707821 0.421448 -0.796151 0.194755 7.467942 -51.356253 -5.481766 28.732376 83.580286 34.270741 -3.116835 -11.257274 -0.339042 0.113258 0.580371 0.020718
-131.383841 51.902795 -54.164657 175.490768 -28.903580 0.626185 -3.066079 7.848211 -0.700175 -0.165409 0.403828 0.004528 -0.277187 0.687614 0.010685 -3.048930 7.427264 -0.104717 -7.231713 18.051551 0.360935 -7.913901 -6.434852 2.064946 -1.832699 13.438527 5.336969 -10.641511 -18.309298 -52.419221 103.524606 -20.541801 -169.150158 8.067481 -3.717298 -27.078058 4.095001 12.118482 -8.811096 5.893366 -17.877013 54.617024 -104.267321 -27.719999 172.956041 3.620152 -1.307340 28.979117 -9.021614 -53.484947 4.742071 -74.969827 81.731398 -83.353796 -4.986882 -6.576482 5.714153 0.402272 -0.785576 0.186570 7.467142 -51.479153 -5.471531 29.022349 83.619562 34.575989 -3.082385 -11.300845 -0.369193 0.111432 0.585672 0.026670
-131.378815 51.895481 -54.189312 175.433745 -28.871190 0.604663 -3.054574 7.888867 -0.671738 -0.165337 0.401464 0.004809 -0.288034 0.699448 0.007716 -3.057635 7.397077 -0.097764 -7.247524 18.084381 0.395368 -7.956100 -6.385611 2.106972 -1.995616 13.390920 5.235400 -10.722825 -18.238682 -52.569636 102.754670 -21.163761 -168.878842 8.497444 -2.937443 -28.931976 4.311387 12.126478 -8.676539 6.676141 -17.812963 54.681935 -104.621778 -27.956383 173.198589 3.685320 -0.753060 30.127420 -9.049091 -53.514403 4.830876 -75.159856 81.734942 -83.544525 -4.966789 -6.597296 5.725548 0.384994 -0.788608 0.175016 7.415242 -51.528827 -5.417656 29.405908 83.674125 34.998946 -3.040217 -11.353752 -0.427519 0.132227 0.580923 0.029776
-131.378866 51.883423 -54.203945 175.398655 -28.783046 0.596246 -3.051796 7.854582 -0.659685 -0.174448 0.414206 0.001030 -0.287775 0.696443 0.008276 -3.060655 7.380193 -0.091515 -7.282072 18.134769 0.427559 -8.003690 -6.325776 2.150192 -2.158930 13.334492 5.148253 -10.765480 -18.151632 -52.716137 102.128882 -21.849542 -168.633672 8.815563 -2.116671 -30.580320 4.494640 12.146982 -8.550893 7.378445 -17.692485 54.746814 -104.788877 -28.177002 173.331786 3.747838 -0.169111 31.142771 -9.080227 -53.604833 4.898614 -75.326603 81.741636 -83.715501 -4.959183 -6.638978 5.738703 0.371606 -0.765359 0.163166 7.389599 -51.631998 -5.404028 29.741354 83.704811 35.350513 -3.017967 -11.394069 -0.443299 0.145170 0.587867 0.014265
-131.377477 51.872558 -54.218141 175.362129 -28.709609 0.578513 -3.024142 7.800789 -0.626460 -0.201181 0.456178 -0.010598 -0.287443 0.694333 0.008918 -3.061068 7.368481 -0.084117 -7.321037 18.194067 0.457137 -8.055904 -6.255627 2.191719 -2.316694 13.281718 5.063972 -10.772763 -18.071275 -52.839768 101.689161 -22.590197 -168.427684 9.011465 -1.277624 -31.997626 4.658066 12.180169 -8.439222 8.001042 -17.528551 54.815107 -104.794502 -28.383855 173.361275 3.813441 0.408762 31.996427 -9.117020 -53.676068 4.976957 -75.457227 81.744964 -83.845058 -4.951330 -6.678706 5.740621 0.374254 -0.742928 0.160474 7.345514 -51.720769 -5.367948 30.097539 83.732019 35.721629 -2.989020 -11.434549 -0.478829 0.139567 0.594879 0.019413
-131.377244 51.863103 -54.231791 175.332751 -28.650217 0.563246 -3.031371 7.801042 -0.615128 -0.197397 0.453046 -0.009234 -0.287134 0.692581 0.009661 -3.060788 7.359090 -0.075882 -7.363256 18.261270 0.482607 -8.111057 -6.176425 2.229570 -2.462581 13.253224 4.979463 -10.746158 -18.004598 -52.929764 101.441354 -23.385319 -168.280479 9.071696 -0.460260 -33.162139 4.805399 12.234759 -8.343334 8.552072 -17.341927 54.887520 -104.684567 -28.581783 173.309993 3.879186 0.942484 32.646305 -9.149545 -53.732653 5.042593 -75.590008 81.745907 -83.975844 -4.960850 -6.723770 5.754945 0.385240 -0.716933 0.147925 7.296394 -51.794024 -5.334127 30.443575 83.755442 36.078740 -2.964293 -11.469941 -0.514985 0.145809 0.599565 0.037802
-131.378278 51.853602 -54.241744 175.300836 -28.584235 0.554570 -3.056473 7.832131 -0.621508 -0.157089 0.383855 0.009922 -0.302152 0.716112 0.001890 -3.044074 7.330693 -0.062186 -7.425344 18.355668 0.497999 -8.168805 -6.088732 2.263631 -2.608430 13.274216 4.899626 -10.691793 -17.949698 -52.994628 101.398208 -24.243018 -168.226798 8.999121 0.285955 -34.047114 4.921803 12.329292 -8.261427 9.042146 -17.141580 54.960852 -104.505500 -28.773254 173.206820 3.938144 1.398789 33.056827 -9.199300 -53.798781 5.099947 -75.673094 81.767115 -84.062504 -4.936069 -6.766014 5.763696 0.353775 -0.696333 0.128455 7.252680 -51.873420 -5.307442 30.751364 83.775907 36.394307 -2.943369 -11.499154 -0.531246 0.160649 0.603967 0.029198
